<svg xmlns="http://www.w3.org/2000/svg" viewBox="0 0 37.23 37.23"><defs><style>.cls-1{fill:#df3a6b;}.cls-2{fill:#fff;fill-rule:evenodd;}</style></defs><title>Ресурс 17</title><g id="Слой_2" data-name="Слой 2"><g id="Слой_6" data-name="Слой 6"><rect class="cls-1" width="37.23" height="37.23"/><path class="cls-2" d="M15.38,18.52a3.23,3.23,0,1,1,3.23,3.23,3.23,3.23,0,0,1-3.23-3.23Zm6.56-6.32H15.27a3,3,0,0,0-3,3v6.67a3,3,0,0,0,3,3h6.67a3,3,0,0,0,3-3V15.19a3,3,0,0,0-3-3Zm-6.67.75h6.67a2.24,2.24,0,0,1,2.24,2.24v6.67a2.24,2.24,0,0,1-2.24,2.24H15.27A2.24,2.24,0,0,1,13,21.86V15.19a2.24,2.24,0,0,1,2.24-2.24Zm7.33.94a.66.66,0,1,0,.66.66.66.66,0,0,0-.66-.66Zm.08,4.63A4.08,4.08,0,1,0,18.6,22.6a4.08,4.08,0,0,0,4.08-4.08Z"/></g></g></svg>