<svg xmlns="http://www.w3.org/2000/svg" viewBox="0 0 37.23 37.23"><defs><style>.cls-1{fill:#55abed;}.cls-2{fill:#fff;fill-rule:evenodd;}</style></defs><title>Ресурс 15</title><g id="Слой_2" data-name="Слой 2"><g id="Слой_6" data-name="Слой 6"><rect class="cls-1" width="37.23" height="37.23"/><path class="cls-2" d="M25.56,14.87a6.13,6.13,0,0,1-1.65.45,2.84,2.84,0,0,0,1.27-1.57,5.86,5.86,0,0,1-1.83.69,2.89,2.89,0,0,0-5,1.93,3,3,0,0,0,.08.65,8.16,8.16,0,0,1-5.93-3,2.79,2.79,0,0,0,.88,3.78,2.79,2.79,0,0,1-1.3-.35v0a2.68,2.68,0,0,0,.2,1,2.87,2.87,0,0,0,2.11,1.75,2.83,2.83,0,0,1-.76.11,2.57,2.57,0,0,1-.54-.06,2.9,2.9,0,0,0,2.68,2,5.82,5.82,0,0,1-3.57,1.21c-.24,0-.46,0-.69,0a8.3,8.3,0,0,0,4.41,1.27,8,8,0,0,0,8-6.34,7.78,7.78,0,0,0,.19-1.71v-.36a6,6,0,0,0,1.43-1.47Z"/></g></g></svg>