<svg xmlns="http://www.w3.org/2000/svg" viewBox="0 0 37.23 37.23"><defs><style>.cls-1{fill:#4a76a7;}.cls-2{fill:#fff;fill-rule:evenodd;}</style></defs><title>Ресурс 14</title><g id="Слой_2" data-name="Слой 2"><g id="Слой_6" data-name="Слой 6"><rect class="cls-1" width="37.23" height="37.23"/><path class="cls-2" d="M25.88,14.9a4.69,4.69,0,0,0-1.73-.16,11,11,0,0,0-1.73.09,10.57,10.57,0,0,0-1,1.88c-.55,1-1.22,2-1.65,2s-.43-1.71-.39-3c0-.83-.13-1.1-.24-1.17A4.69,4.69,0,0,0,18,14.2s-2.41-.18-2.75.86c.46.06,1.25-.08.95,3.14,0,.16-.37,1.48-1.49-.31-.28-.45-1.35-3.13-1.73-3.15a8.86,8.86,0,0,0-2.89.16c-.4.24.54,2.08,2.12,4.55,1.28,2,2.65,3.61,5,4a5.83,5.83,0,0,0,2-.08c.24-.12-.06-1.87.78-2,.37-.07,1.81,1.83,2.35,2a5.3,5.3,0,0,0,1.8.16c.8,0,1.72.08,1.8-.47.2-1.21-2.43-2.78-2.5-3.52-.06-.54,1-1.52,1.48-2.28.65-.91,1.36-2,1-2.36Z"/></g></g></svg>