<svg xmlns="http://www.w3.org/2000/svg" viewBox="0 0 37.23 37.23"><defs><style>.cls-1{fill:#e42d28;}.cls-2{fill:#fff;fill-rule:evenodd;}</style></defs><title>Ресурс 18</title><g id="Слой_2" data-name="Слой 2"><g id="Слой_6" data-name="Слой 6"><rect class="cls-1" width="37.23" height="37.23"/><path class="cls-2" d="M26.18,15.08a3.37,3.37,0,0,0-.58-1.49A2.05,2.05,0,0,0,24.17,13c-2-.15-5-.15-5-.15h0s-3,0-5,.15a2,2,0,0,0-1.44.64,3.37,3.37,0,0,0-.58,1.49A22.85,22.85,0,0,0,12,17.49v1.14A22.47,22.47,0,0,0,12.11,21a3.42,3.42,0,0,0,.58,1.49,2.35,2.35,0,0,0,1.59.64c1.14.12,4.88.16,4.88.16s3,0,5-.16a2,2,0,0,0,1.43-.64A3.42,3.42,0,0,0,26.18,21a23.78,23.78,0,0,0,.14-2.41V17.49c0-1.2-.14-2.41-.14-2.41Zm-4.64,2.83L17.66,20V15.8l1.76,1Z"/></g></g></svg>